<svg width="59" height="56" viewBox="0 0 59 56" fill="none" xmlns="http://www.w3.org/2000/svg">
<path fill-rule="evenodd" clip-rule="evenodd" d="M20.3232 20.6133C20.8755 20.6133 21.3232 21.061 21.3232 21.6133V45.6133C21.3232 46.1656 20.8755 46.6133 20.3232 46.6133C19.771 46.6133 19.3232 46.1656 19.3232 45.6133V21.6133C19.3232 21.061 19.771 20.6133 20.3232 20.6133ZM29.3232 20.6133C29.8755 20.6133 30.3232 21.061 30.3232 21.6133V45.6133C30.3232 46.1656 29.8755 46.6133 29.3232 46.6133C28.771 46.6133 28.3232 46.1656 28.3232 45.6133V21.6133C28.3232 21.061 28.771 20.6133 29.3232 20.6133ZM38.3232 20.6133C38.8755 20.6133 39.3232 21.061 39.3232 21.6133V45.6133C39.3232 46.1656 38.8755 46.6133 38.3232 46.6133C37.771 46.6133 37.3232 46.1656 37.3232 45.6133V21.6133C37.3232 21.061 37.771 20.6133 38.3232 20.6133Z" fill="#1B1B1B"/>
<path fill-rule="evenodd" clip-rule="evenodd" d="M16.6806 2.27974C17.036 1.5143 17.7227 0.613281 18.8202 0.613281H39.895C41.0251 0.613281 41.6459 1.52886 41.9727 2.37318C42.5931 3.64696 42.5526 4.91819 42.5405 5.29845C42.5393 5.33558 42.5384 5.36422 42.5384 5.38354V12.1135C42.5384 12.6658 42.0907 13.1135 41.5384 13.1135C40.9861 13.1135 40.5384 12.6658 40.5384 12.1135V5.38354C40.5384 5.34414 40.5393 5.29835 40.5403 5.24685C40.5486 4.82706 40.5643 4.02792 40.1606 3.22057C40.145 3.1893 40.131 3.15722 40.1187 3.12448C40.0026 2.81495 39.8983 2.66971 39.8432 2.61328H18.8568C18.825 2.6305 18.6806 2.72134 18.4946 3.12197C18.2559 3.63605 18.0801 4.42746 18.0801 5.38354V11.9573C18.0801 12.5096 17.6324 12.9573 17.0801 12.9573C16.5278 12.9573 16.0801 12.5096 16.0801 11.9573V5.38354C16.0801 4.2128 16.2909 3.11908 16.6806 2.27974Z" fill="#FFDC5D"/>
<path fill-rule="evenodd" clip-rule="evenodd" d="M0.322266 12.2471C0.322266 11.6948 0.769981 11.2471 1.32227 11.2471H57.3927C57.945 11.2471 58.3927 11.6948 58.3927 12.2471C58.3927 12.7994 57.945 13.2471 57.3927 13.2471H1.32227C0.769981 13.2471 0.322266 12.7994 0.322266 12.2471ZM8.41505 16.613C8.96734 16.613 9.41506 17.0607 9.41507 17.613L9.41554 50.5724C9.41554 52.2827 10.4882 53.3244 11.4004 53.3244H11.4082L11.4082 53.3244L48.1509 53.613C48.152 53.613 48.1531 53.613 48.1542 53.613C48.5687 53.6117 49.0484 53.3811 49.4569 52.8702C49.8621 52.3633 50.1357 51.6459 50.1357 50.8611V17.613C50.1357 17.0607 50.5834 16.613 51.1357 16.613C51.688 16.613 52.1357 17.0607 52.1357 17.613V50.8611C52.1357 52.0965 51.7097 53.2551 51.019 54.119C50.3326 54.9776 49.3214 55.613 48.1509 55.613H48.143V55.6129L11.4004 55.3244C11.3989 55.3244 11.3975 55.3244 11.3961 55.3244C8.95277 55.3215 7.41554 52.9013 7.41554 50.5725L7.41507 17.613C7.41506 17.0607 7.86277 16.613 8.41505 16.613Z" fill="#016D38"/>
</svg>
