<svg width="56" height="52" viewBox="0 0 56 52" fill="none" xmlns="http://www.w3.org/2000/svg">
<path fill-rule="evenodd" clip-rule="evenodd" d="M28 2.7002C25.9505 2.7002 23.9861 3.81506 22.9682 5.59633L22.9658 5.60064L12.9658 22.9006C12.6894 23.3788 12.0777 23.5424 11.5996 23.266C11.1214 22.9896 10.9578 22.3779 11.2342 21.8998L21.2318 4.60406L21.2331 4.60173C22.6156 2.18438 25.2503 0.700195 28 0.700195C30.7498 0.700195 33.3847 2.18455 34.7672 4.60215L34.7682 4.60406L54.962 39.5933C55.6626 40.7644 56 42.1432 56 43.5002C56 47.7429 52.5618 51.3002 48.2 51.3002H7.8C3.55731 51.3002 0 47.862 0 43.5002C0 42.1431 0.337463 40.7641 1.03818 39.5929L9.5343 24.8996C9.81076 24.4215 10.4225 24.258 10.9006 24.5345C11.3787 24.811 11.5422 25.4227 11.2657 25.9008L2.7657 40.6008L2.75749 40.6147C2.26115 41.4419 2 42.4601 2 43.5002C2 46.7384 4.64269 49.3002 7.8 49.3002H48.2C51.4382 49.3002 54 46.6575 54 43.5002C54 42.4601 53.7388 41.4419 53.2425 40.6147L53.2339 40.6001L33.0339 5.60006L33.0318 5.59633C32.0139 3.81506 30.0495 2.7002 28 2.7002Z" fill="#016D38"/>
<path fill-rule="evenodd" clip-rule="evenodd" d="M27.9998 6.6001C27.2279 6.6001 26.6812 6.93273 26.374 7.48574L26.3659 7.49996L6.17038 42.4922C5.84176 43.089 5.84295 43.8186 6.17396 44.4145C6.181 44.4271 6.18775 44.4399 6.19423 44.4529C6.5098 45.084 7.04373 45.4001 7.7998 45.4001H29.8998C30.4521 45.4001 30.8998 45.8478 30.8998 46.4001C30.8998 46.9524 30.4521 47.4001 29.8998 47.4001H7.7998C6.36269 47.4001 5.10175 46.7226 4.41509 45.3666C3.75788 44.1682 3.76139 42.7101 4.42565 41.5145L4.4337 41.5002L24.6299 6.50683C25.3235 5.26474 26.5746 4.6001 27.9998 4.6001C29.4337 4.6001 30.6922 5.27452 31.3799 6.6244L51.5659 41.6002L51.574 41.6145C52.2418 42.8165 52.2418 44.2837 51.574 45.4857C50.9041 46.6915 49.5761 47.5001 48.1998 47.5001H33.2998C32.7475 47.5001 32.2998 47.0524 32.2998 46.5001C32.2998 45.9478 32.7475 45.5001 33.2998 45.5001H48.1998C48.8235 45.5001 49.4955 45.1087 49.8256 44.5145C50.1567 43.9186 50.1579 43.189 49.8293 42.5923L29.6337 7.59996C29.6237 7.5827 29.6143 7.56514 29.6054 7.54731C29.2898 6.91618 28.7559 6.6001 27.9998 6.6001Z" fill="#FFDC5D"/>
<path fill-rule="evenodd" clip-rule="evenodd" d="M24.5933 17.0932C25.0336 16.6528 25.6752 16.3003 26.4004 16.3003H29.5004C30.2256 16.3003 30.8672 16.6528 31.3075 17.0932C31.8612 17.6469 32.0004 18.3461 32.0004 18.9003C32.0004 18.9213 31.9997 18.9423 31.9984 18.9632L31.2984 30.0632C31.2971 30.0836 31.2952 30.104 31.2927 30.1243C31.1386 31.3566 30.1705 32.4003 28.8004 32.4003H27.1004C25.8503 32.4003 24.6208 31.4559 24.6006 30.0358L23.9024 18.9632C23.9011 18.9423 23.9004 18.9213 23.9004 18.9003C23.9004 18.3461 24.0396 17.6469 24.5933 17.0932ZM26.4004 18.3003C26.3256 18.3003 26.1672 18.3477 26.0075 18.5074C25.9629 18.552 25.905 18.6469 25.9006 18.8729L26.5984 29.9374C26.5997 29.9583 26.6004 29.9793 26.6004 30.0003C26.6004 30.0941 26.6377 30.1828 26.7231 30.2604C26.8134 30.3425 26.9484 30.4003 27.1004 30.4003H28.8004C29.025 30.4003 29.2515 30.251 29.3046 29.9013L30.0001 18.8729C29.9958 18.6469 29.9378 18.552 29.8933 18.5074C29.7336 18.3477 29.5752 18.3003 29.5004 18.3003H26.4004Z" fill="#1B1B1B"/>
<path fill-rule="evenodd" clip-rule="evenodd" d="M24.2004 37.1003C24.2004 34.9249 25.9715 33.3003 28.0004 33.3003C30.0527 33.3003 31.8004 35.048 31.8004 37.1003C31.8004 39.2757 30.0293 40.9003 28.0004 40.9003C25.8481 40.9003 24.2004 39.2526 24.2004 37.1003ZM28.0004 35.3003C27.0293 35.3003 26.2004 36.0757 26.2004 37.1003C26.2004 38.148 26.9527 38.9003 28.0004 38.9003C28.9715 38.9003 29.8004 38.1249 29.8004 37.1003C29.8004 36.1526 28.9481 35.3003 28.0004 35.3003Z" fill="#1B1B1B"/>
</svg>