<svg width="134" height="108" viewBox="0 0 134 108" fill="none" xmlns="http://www.w3.org/2000/svg">
<path d="M29.994 46.2335L27.3936 55.9421C26.7633 58.2975 26.6335 60.7346 26.889 63.1424L19.5191 69.21C18.1435 70.3427 16.1042 69.12 16.458 67.3738L19.6907 51.3191C19.9127 50.2178 19.1338 49.1668 18.0158 49.06L1.71402 47.4792C-0.0593678 47.3076 -0.637236 45.0024 0.847215 44.0162L14.4878 34.9504C15.4216 34.3286 15.6143 33.0346 14.9024 32.1678L4.49448 19.5196C3.36178 18.1441 4.58451 16.1069 6.33277 16.4586L22.3875 19.6913C23.4888 19.9133 24.5398 19.1344 24.6487 18.0163L26.2294 1.7146C26.4011 -0.060874 28.7063 -0.636649 29.6946 0.847802L38.7604 14.4863C39.3822 15.4201 40.6761 15.6128 41.5429 14.9009L54.189 4.49298C55.5646 3.36027 57.6018 4.58301 57.2501 6.32917L54.8779 18.0875C54.3105 18.7261 53.741 19.3626 53.2217 20.0556L46.4904 29.0524L44.248 32.0506C37.3953 33.8847 31.8574 39.2802 29.994 46.2335ZM133.543 73.9774L130.943 83.6839C130.288 86.1294 128.979 88.2085 127.268 89.8311C126.699 90.3701 126.086 90.8604 125.434 91.2967L122.505 102.232C122.267 103.126 121.856 103.928 121.322 104.615C119.716 106.675 116.98 107.688 114.3 106.97L107.828 105.237C104.254 104.28 102.133 100.605 103.09 97.0314L104.824 90.5597L53.0501 76.6867L51.3165 83.1584C50.3596 86.7324 46.6851 88.8533 43.1111 87.8965L36.6394 86.1629C33.9595 85.4447 32.0961 83.1982 31.7359 80.6124C31.6166 79.7498 31.6627 78.8495 31.9013 77.9576L34.8305 67.0221C34.484 66.3181 34.1975 65.5862 33.9741 64.8341C33.3041 62.575 33.2099 60.1191 33.8653 57.6736L36.4657 47.965C37.5774 43.8194 40.5191 40.6725 44.1894 39.1274C45.4235 38.6073 46.7283 38.2743 48.0607 38.1391L51.8566 33.066L58.588 24.0693C59.3103 23.1041 60.0933 22.2059 60.9329 21.381C62.6079 19.729 64.4985 18.3576 66.5316 17.2961C67.5491 16.7643 68.6022 16.31 69.6826 15.9373C71.8454 15.1877 74.1192 14.7585 76.4328 14.6727C78.7463 14.5868 81.1039 14.8444 83.4321 15.4683L109.118 22.3504C111.446 22.9743 113.615 23.929 115.577 25.1622C118.505 27.0005 120.986 29.4681 122.84 32.3856C124.687 35.2917 125.905 38.6333 126.333 42.224L127.664 53.3814L128.416 59.6731C130.59 61.2428 132.247 63.4243 133.177 65.9396C134.096 68.427 134.285 71.2137 133.543 73.9774ZM53.5128 49.0663C49.6289 48.0257 46.3501 49.9121 45.3117 53.7834C44.2732 57.6547 46.1722 60.9272 50.0539 61.9678C53.9378 63.0084 59.5888 65.2152 60.6251 61.3439C61.6636 57.4726 57.3945 50.1069 53.5128 49.0663ZM114.359 54.9643L113.027 43.8068C112.905 42.7872 112.631 41.8115 112.227 40.9049C111.013 38.1852 108.626 36.0873 105.649 35.2896L79.9628 28.4075C78.0226 27.8878 75.9712 27.9612 74.0732 28.6184C72.1751 29.2756 70.5175 30.4864 69.3141 32.0945L62.5828 41.0913L98.5949 50.7392L114.359 54.9643ZM118.23 66.4065C114.346 65.3659 106.966 69.612 105.929 73.4812C104.893 77.3525 110.889 78.2675 114.773 79.308C118.657 80.3486 121.936 78.4622 122.974 74.5909C124.011 70.7217 122.114 67.4471 118.23 66.4065Z" fill="#016D38"/>
</svg>
