<svg width="134" height="94" viewBox="0 0 134 94" fill="none" xmlns="http://www.w3.org/2000/svg">
<path d="M127.837 64.7463C128.381 61.7938 128.381 58.7784 127.837 55.8259L133.239 52.7058C133.868 52.3498 134.14 51.617 133.93 50.9259C132.527 46.4029 130.119 42.2987 126.978 38.9064C126.497 38.3829 125.722 38.2573 125.094 38.6133L119.691 41.7333C117.409 39.7859 114.791 38.2782 111.965 37.2731V31.033C111.965 30.321 111.462 29.6928 110.771 29.5463C106.102 28.4993 101.348 28.5411 96.909 29.5463C96.218 29.6928 95.7154 30.321 95.7154 31.033V37.2731C92.8886 38.2782 90.2711 39.7859 87.9887 41.7333L82.5862 38.6133C81.979 38.2573 81.1833 38.3829 80.7016 38.9064C77.5607 42.2987 75.1526 46.4029 73.7497 50.9259C73.5403 51.617 73.8334 52.3498 74.4407 52.7058L79.8431 55.8259C79.2987 58.7784 79.2987 61.7938 79.8431 64.7463L74.4407 67.8664C73.8125 68.2223 73.5403 68.9552 73.7497 69.6462C75.1526 74.1693 77.5607 78.2526 80.7016 81.6658C81.1833 82.1893 81.958 82.3149 82.5862 81.9589L87.9887 78.8389C90.2711 80.7863 92.8886 82.294 95.7154 83.2991V89.5392C95.7154 90.2512 96.218 90.8793 96.909 91.0259C101.579 92.0729 106.332 92.031 110.771 91.0259C111.462 90.8793 111.965 90.2512 111.965 89.5392V83.2991C114.791 82.294 117.409 80.7863 119.691 78.8389L125.094 81.9589C125.701 82.3149 126.497 82.1893 126.978 81.6658C130.119 78.2735 132.527 74.1693 133.93 69.6462C134.14 68.9552 133.847 68.2223 133.239 67.8664L127.837 64.7463ZM103.861 70.442C98.2491 70.442 93.7052 65.8771 93.7052 60.2861C93.7052 54.6951 98.2701 50.1302 103.861 50.1302C109.452 50.1302 114.017 54.6951 114.017 60.2861C114.017 65.8771 109.473 70.442 103.861 70.442ZM20.1021 40.1837C27.4938 40.1837 33.5035 34.174 33.5035 26.7822C33.5035 19.3904 27.4938 13.3806 20.1021 13.3806C12.7104 13.3806 6.70071 19.3904 6.70071 26.7822C6.70071 34.174 12.7104 40.1837 20.1021 40.1837ZM67.0071 46.8845C67.4049 46.8845 67.7818 46.7798 68.1797 46.7589C69.9177 42.2149 72.4723 37.9432 75.7808 34.3624C77.3303 32.6872 79.529 31.724 81.8324 31.724C83.2772 31.724 84.7011 32.1009 85.9366 32.8338L87.5908 33.7971C87.7583 33.6924 87.9258 33.6086 88.0934 33.5039C89.5591 30.4467 90.4386 27.0544 90.4386 23.4527C90.4386 10.4909 79.9478 0 66.9861 0C54.0244 0 43.5546 10.47 43.5546 23.4318C43.5546 36.3936 54.0454 46.8845 67.0071 46.8845ZM89.0356 87.6127C88.554 87.3614 88.0724 87.0683 87.6117 86.7961C85.8947 87.8012 84.408 88.8482 81.8533 88.8482C79.5709 88.8482 77.3722 87.8849 75.8018 86.2097C71.9698 82.0636 69.0382 77.0171 67.384 71.6355C65.1434 64.4113 72.598 61.2284 72.7864 61.1027C72.7655 60.5583 72.7655 60.0139 72.7864 59.4694L71.1322 58.5062C70.3365 58.0455 69.6664 57.4592 69.0801 56.8101C68.3891 56.8519 67.719 56.9357 67.028 56.9357C61.8768 56.9357 57.0607 55.6793 52.6843 53.5853H50.9463C37.6077 53.5853 26.8028 64.3903 26.8028 77.7081V83.7388C26.8028 89.2879 31.3049 93.79 36.8539 93.79H90.3339C89.5591 92.5336 89.0356 91.1097 89.0356 89.5392V87.6127ZM36.2466 50.7794C33.8176 48.3713 30.4882 46.8845 26.8028 46.8845H13.4014C6.0097 46.8845 0 52.8943 0 60.2861V66.9869C0 70.6932 2.99438 73.6877 6.70071 73.6877H20.5C21.8192 63.7621 27.8079 55.4071 36.2466 50.7794Z" fill="#016D38"/>
</svg>
