<svg width="162" height="68" viewBox="0 0 162 68" fill="none" xmlns="http://www.w3.org/2000/svg">
<g clip-path="url(#clip0_13870_28932)">
<path d="M161.673 0H0.327148V68H161.673V0Z" fill="white"/>
<path d="M98.75 48.8538C98.0001 48.7302 97.1212 47.8782 96.0488 46.2897C95.4199 45.2549 94.7829 44.2094 94.1513 43.1558C96.1214 42.793 97.0621 41.6856 97.0514 39.9466C97.0691 39.4531 96.9452 38.9647 96.6942 38.5394C96.4432 38.1141 96.0756 37.7695 95.6349 37.5465C94.7723 37.0925 93.8057 36.8728 92.8316 36.9095C92.3747 36.9095 91.7108 36.9337 90.8319 36.9686C89.4299 37.0329 88.0253 37.0141 86.6256 36.9122H86.4939V37.3073C86.4939 37.3073 88.5097 37.6352 88.5097 38.3017C88.5285 38.42 88.5446 39.0247 88.5446 39.8848V46.8192C88.5596 47.243 88.5181 47.6669 88.421 48.0798C88.2785 48.5421 86.7922 48.8861 86.7922 48.8861L86.7116 49.3538H86.8594C87.8539 49.2695 88.8224 49.2283 89.7649 49.2301C90.7083 49.2301 91.6248 49.2704 92.5198 49.3538H92.6488V48.9318C92.6488 48.9318 91.2055 48.4802 90.805 48.2088C90.6008 48.069 90.5658 47.7196 90.5631 47.2062C90.5631 47.1095 90.5631 46.7923 90.5819 46.3999C90.6008 46.0075 90.6008 45.6689 90.6008 45.3813V43.4515H91.8667C93.2387 45.3194 94.5031 47.264 95.6537 49.2758L95.6887 49.3403C95.6887 49.3403 96.7423 49.2758 97.2449 49.2758C97.7475 49.2758 98.2904 49.2946 98.7178 49.3349H98.8495V48.8565L98.75 48.8538ZM91.8022 42.3576H90.5873V38.0384L92.3209 38.0195C94.0948 38.041 94.8931 38.721 94.9065 40.1912C94.9065 41.0782 94.5974 41.648 93.9819 41.9759C93.517 42.2259 92.7993 42.3602 91.8022 42.3576Z" fill="#016D38"/>
<path d="M21.7084 43.567C21.1487 43.2132 20.5219 42.979 19.8673 42.879C20.3777 42.749 20.8634 42.5366 21.3053 42.2501C21.6634 42.0214 21.9615 41.7102 22.1748 41.3427C22.388 40.9752 22.5101 40.5619 22.5309 40.1375C22.5524 39.6344 22.4391 39.1348 22.2029 38.6902C21.9666 38.2455 21.6159 37.8721 21.187 37.6083C20.4344 37.103 19.4857 36.9149 18.3568 36.9149L15.3653 36.9686C15.0267 36.9686 14.7015 36.9686 14.3924 36.9686C13.2017 36.9686 12.2422 36.8934 12.2422 36.8934V37.3207C12.2422 37.3207 14.0967 37.5653 14.258 38.4523C14.2768 38.5705 14.3333 47.553 14.1854 47.8594C13.8226 48.6361 12.2422 48.8834 12.2422 48.8834V49.3323C12.2422 49.3323 13.4114 49.2194 14.7068 49.2355C15.0025 49.2355 15.3116 49.2355 15.6314 49.2355L18.9078 49.3134C19.918 49.3456 20.9133 49.0639 21.7568 48.5071C22.1841 48.2331 22.5327 47.8526 22.7683 47.403C23.0039 46.9535 23.1185 46.4503 23.1007 45.943C23.1045 45.4582 22.9771 44.9815 22.732 44.5632C22.4869 44.1449 22.1332 43.8007 21.7084 43.567ZM16.1663 39.9144C16.1663 39.315 16.1663 38.7479 16.2093 37.9738C16.6044 37.955 17.1151 37.9443 17.6983 37.9443C19.5475 37.9658 20.3861 38.5571 20.3861 40.1133C20.3726 41.5754 19.4937 42.1963 17.4833 42.2151H16.1824L16.1663 39.9144ZM17.615 48.3002C17.6137 48.3055 17.6137 48.311 17.615 48.3163C17.615 48.3163 17.6177 48.3055 17.615 48.3002ZM17.5156 48.2088H17.4914L16.2201 48.1631C16.1986 47.7707 16.1959 47.4508 16.1959 47.088V43.5321H17.3812C19.8001 43.5482 20.9102 44.3599 20.9209 46.0317C20.9129 47.6444 19.8485 48.1873 17.5156 48.2088Z" fill="#016D38"/>
<path d="M32.704 36.6864C30.7984 36.6864 29.2583 37.2992 28.1348 38.5275C27.0113 39.7558 26.4469 41.3201 26.4469 43.2365C26.4469 45.0265 26.9845 46.5316 28.0784 47.7169C29.1884 48.9479 30.6452 49.5634 32.4164 49.5634C34.2978 49.5634 35.8164 48.8727 36.9372 47.5073C37.9854 46.2306 38.5068 44.626 38.5068 42.7097C38.5068 40.9572 37.9908 39.5112 36.9533 38.4093C35.8702 37.2562 34.4457 36.6837 32.704 36.6864ZM36.1712 43.5939C36.1712 44.9378 35.9024 46.0532 35.381 46.9187C35.1031 47.407 34.6958 47.8091 34.2041 48.0808C33.7123 48.3526 33.1551 48.4833 32.5938 48.4587C31.1827 48.4587 30.1748 47.7761 29.5163 46.3677C29.0218 45.3221 28.7691 43.981 28.7691 42.3495C28.7691 41.0701 29.0755 40.0246 29.683 39.1968C29.9978 38.7453 30.4209 38.3801 30.9135 38.1345C31.4061 37.8889 31.9524 37.7708 32.5024 37.7911C34.9483 37.7911 36.1658 39.6537 36.1819 43.5912L36.1712 43.5939Z" fill="#016D38"/>
<path d="M48.5671 47.9911H45.0381V40.0999C45.0381 39.1403 45.0569 38.6592 45.0757 38.42C45.1348 37.6137 47.2259 37.2965 47.2259 37.2965V36.8934C47.2259 36.8934 45.0757 37.0251 44.0812 37.0251C43.0868 37.0251 41.0441 36.8907 41.0441 36.8907V37.2885C41.0441 37.2885 43.0572 37.6244 43.0572 38.3851C43.0787 38.5087 43.0921 39.0866 43.0921 39.944V46.6176C43.0921 47.2735 43.1271 47.5852 42.9712 47.8889C42.5868 48.6361 41.0441 48.8458 41.0441 48.8458V49.3323H41.1704C42.4578 49.257 43.9146 49.2194 45.503 49.2194C47.0915 49.2194 48.8143 49.257 50.6366 49.3323H50.7576L50.9188 46.0344H50.3974C50.3974 46.0344 50.1287 48.0637 48.5671 47.9911Z" fill="#016D38"/>
<path d="M59.2025 33.6089C59.1955 33.3623 59.0924 33.1281 58.9151 32.9563C58.7379 32.7846 58.5005 32.6889 58.2537 32.6897C58.0812 32.7035 57.9131 32.7511 57.759 32.83C57.605 32.9089 57.468 33.0174 57.356 33.1493L54.7623 36.1569H55.7272L58.6838 34.469C58.8353 34.3861 58.9637 34.2668 59.0576 34.1218C59.1514 33.9768 59.2077 33.8107 59.2213 33.6385L59.2025 33.6089Z" fill="#016D38"/>
<path d="M56.2191 37.0627C55.5024 37.0627 54.5464 37.0125 53.3513 36.9122H53.2222V37.318C53.2222 37.318 54.894 37.6916 55.1037 38.5625C55.2112 38.9871 55.1601 39.7155 55.1843 40.4949C55.1843 40.4949 55.2434 43.3655 55.2246 44.9028C55.1977 46.9912 55.1252 47.9131 54.6011 48.3485C54.1388 48.7329 53.2115 48.8511 53.2115 48.8511V49.3591H53.3405C54.4667 49.2624 55.4235 49.2113 56.2083 49.2113C56.891 49.2113 57.821 49.2624 59.0009 49.3618H59.1299V48.8538C58.6324 48.7649 58.1546 48.5884 57.7188 48.3324C57.3506 48.0636 57.106 46.9885 57.1249 44.9055C57.1249 44.6206 57.1517 40.6535 57.1652 40.503C57.1867 39.7182 57.1652 38.9898 57.227 38.5571C57.3399 37.5653 59.1299 37.3207 59.1299 37.3207V36.9014H59.0009C57.7726 37.0116 56.84 37.0627 56.2191 37.0627Z" fill="#016D38"/>
<path d="M73.1788 37.3288L73.2729 37.3073V36.8934L73.1385 36.9122C72.5431 36.9884 71.9433 37.0261 71.3431 37.0251C70.6642 37.0228 69.986 36.9851 69.3111 36.9122H69.1794V37.31L69.2601 37.3369C69.7653 37.4981 70.4776 37.7185 70.4453 37.9631C70.2303 39.0866 68.2118 44.2524 67.6877 45.5184C67.2872 44.5884 64.6855 38.1889 64.6989 38.0276C64.6989 38.0276 64.5484 37.6809 66.0939 37.3422L66.1853 37.3207V36.9122C66.1853 36.9122 64.449 37.0358 63.6212 37.0358C61.5516 37.0358 60.9334 36.9122 60.9334 36.9122V37.3127C60.9334 37.3127 62.151 37.6218 62.5057 38.42C63.7851 41.3174 65.2607 45.048 66.8276 49.4962L66.8545 49.5768H67.4566L67.4861 49.4962C68.6499 46.3005 71.12 39.909 71.8591 38.3797C71.9821 38.1139 72.1655 37.8805 72.3946 37.698C72.6237 37.5156 72.8922 37.3892 73.1788 37.3288Z" fill="#016D38"/>
<path d="M79.409 36.6058L79.3794 36.5278H78.4898L78.4602 36.6004C76.5277 41.1938 75.888 42.5806 74.2512 46.408C74.0066 46.9832 73.8803 47.3998 73.6222 47.8836C73.289 48.5098 72.0956 48.87 72.0956 48.87V49.3618L72.2273 49.3457C72.93 49.2724 73.636 49.2356 74.3426 49.2355C75.0607 49.2355 75.7784 49.2723 76.4928 49.3457H76.6271V48.8565L75.0602 48.2625C75.5977 46.8918 75.9283 46.0156 76.2482 45.2576L78.3231 45.2738L80.6319 45.3114C81.0294 46.2848 81.3713 47.2799 81.6559 48.2921C81.0951 48.5145 80.5183 48.6942 79.9304 48.8297L79.839 48.8485V49.3511H79.968C80.8039 49.2785 81.6962 49.2409 82.6262 49.2409C83.5562 49.2409 84.5264 49.2758 85.5128 49.3538H85.6418V48.8673C85.6418 48.8673 84.5667 48.577 84.1985 48.2061C83.9298 47.9373 83.5266 46.7601 83.5266 46.7601C80.9732 40.5648 80.0298 38.2184 79.409 36.6058ZM76.5868 44.4002L78.4682 39.6752L80.2449 44.3841L76.5868 44.4002Z" fill="#016D38"/>
<path d="M24.0172 29.9482L21.8428 29.9294C21.8132 29.2978 21.8133 28.9914 21.8133 28.8194V27.7362H22.7298C22.8642 27.7362 23.0201 27.7362 23.1894 27.7362C23.3587 27.7362 23.6329 27.7362 23.6812 27.7362C23.8989 27.7362 24.1785 27.919 24.3102 28.5748V28.6151H24.4714V28.5425C24.4714 28.1528 24.458 27.7739 24.458 27.4056C24.458 27.0374 24.458 26.6826 24.4714 26.3305V26.2687H24.3129V26.309C24.2027 26.8869 23.9419 27.0912 23.7269 27.0939C23.6786 27.0939 23.3641 27.0939 23.1894 27.0939C23.0147 27.0939 22.8668 27.0939 22.7298 27.0939H21.7998V26.1236C21.7998 25.9596 21.7998 25.6693 21.8455 25.1587L23.1087 25.1425C23.2136 25.1425 23.3533 25.1425 23.5227 25.1425C23.692 25.1425 23.8586 25.1425 23.9043 25.1425C24.1274 25.1425 24.4983 25.2178 24.5951 25.9784V26.0188H24.759V25.9354C24.759 25.8091 24.759 25.6828 24.759 25.5538C24.759 25.2286 24.7752 24.8926 24.7886 24.5459V24.4814H24.7241C23.9016 24.5163 23.0631 24.5351 22.2379 24.5351C21.4128 24.5351 20.6011 24.519 19.8189 24.4814H19.7571V24.6829C19.7571 24.6829 20.7677 24.8308 20.7677 25.1802C20.7677 25.2366 20.7839 25.5699 20.7839 25.9865C20.7839 25.9865 20.8376 27.841 20.7839 29.0237C20.765 29.4188 20.8053 29.8864 20.722 30.0316C20.5231 30.3863 19.7652 30.4482 19.7652 30.4482V30.6632H19.8297C20.7812 30.6067 21.7595 30.5799 22.547 30.5799C23.3345 30.5799 24.0817 30.6067 24.7778 30.6632H24.845V30.6121C24.845 30.1256 24.845 29.5935 24.8854 29.0478V28.9833H24.7214C24.7214 28.9833 24.587 29.9482 24.0172 29.9482ZM31.2741 27.7604C30.8441 27.7604 30.3065 27.7416 29.8604 27.7228H29.7959V27.8948C29.7959 27.8948 30.7796 28.0184 30.7796 28.5022V29.9321C30.5226 30.0333 30.2494 30.0871 29.9733 30.0907C29.2126 30.1122 28.6106 29.8757 28.2934 29.4698C27.8928 28.9247 27.6788 28.2649 27.6833 27.5884C27.6424 26.9295 27.842 26.2782 28.245 25.7554C28.6025 25.2769 29.2502 25.0485 30.0324 25.0485C30.5699 25.0485 30.7823 25.1237 30.9382 25.2742C31.1159 25.5508 31.2509 25.8525 31.3386 26.1693H31.5187V26.1075C31.5187 25.8387 31.5026 25.5699 31.4999 25.3173C31.4972 25.0646 31.4999 24.8093 31.5187 24.5674V24.5109H31.4703C31.0283 24.4195 30.5778 24.3754 30.1265 24.3792C29.1898 24.364 28.2779 24.68 27.5516 25.2716C27.1917 25.5632 26.9019 25.932 26.7037 26.3507C26.5055 26.7694 26.404 27.2273 26.4066 27.6905C26.3879 28.1305 26.4724 28.5687 26.6535 28.9701C26.8346 29.3715 27.1072 29.7249 27.4495 30.002C28.1481 30.5495 29.0192 30.8297 29.9061 30.7922C30.5236 30.7956 31.1381 30.705 31.7283 30.5234L31.7875 30.5046V30.4589C31.7875 30.217 31.7687 29.5236 31.7687 28.513C31.7687 27.9754 32.5186 27.8867 32.5186 27.8867V27.7201H32.4567C32.024 27.7362 31.6988 27.7604 31.2661 27.7604H31.2741ZM17.9295 28.005C17.5559 27.5884 16.5533 27.153 16.126 26.9299C15.6341 26.6611 15.3922 26.3467 15.3922 25.9677C15.3996 25.756 15.475 25.5523 15.6071 25.3868C15.7393 25.2212 15.9212 25.1026 16.126 25.0485C16.2416 25.0162 16.9323 24.8469 17.3274 25.1425C17.6392 25.3791 17.6526 26.094 17.6526 26.094H17.8112L17.873 24.7018C17.4181 24.4942 16.9244 24.3852 16.4243 24.3819C15.91 24.3669 15.4046 24.5187 14.9837 24.8146C14.696 24.9911 14.4789 25.2625 14.37 25.582C14.261 25.9014 14.2671 26.2489 14.387 26.5644C14.6047 27.2712 15.8787 27.9082 16.2684 28.1233C17.3435 28.6608 17.0748 29.451 17.0748 29.451C17.0071 29.6211 16.8978 29.7715 16.7569 29.8885C16.6161 30.0054 16.4481 30.0851 16.2684 30.1203C15.9997 30.1928 15.0213 30.1848 14.8654 29.9536C14.7562 29.5856 14.6851 29.2073 14.6531 28.8248L14.4085 28.8812L14.2392 30.51C14.7013 30.6967 15.1948 30.7934 15.6933 30.7949C16.2781 30.824 16.8592 30.688 17.3704 30.4025C17.6333 30.2698 17.8532 30.0653 18.0045 29.8127C18.1558 29.56 18.2323 29.2697 18.2251 28.9753C18.2411 28.6275 18.1367 28.2848 17.9295 28.005ZM52.2869 24.3765C51.862 24.3562 51.4377 24.4278 51.0429 24.5864C50.6482 24.745 50.2923 24.987 49.9996 25.2958C49.423 25.94 49.1203 26.7836 49.1557 27.6475C49.1265 28.4698 49.4153 29.2716 49.962 29.8864C50.2345 30.1881 50.5695 30.4266 50.9436 30.5854C51.3178 30.7441 51.7221 30.8193 52.1283 30.8056C52.5585 30.821 52.9863 30.7363 53.3781 30.5581C53.7699 30.3799 54.1149 30.1132 54.3861 29.7789C54.9239 29.0993 55.2021 28.2503 55.1709 27.3841C55.2022 26.5935 54.9235 25.822 54.3941 25.2339C54.1234 24.9497 53.7959 24.7257 53.4328 24.5766C53.0697 24.4275 52.6793 24.3565 52.2869 24.3685V24.3765ZM54.0178 27.8249C54.0409 28.4032 53.9052 28.9767 53.6254 29.4833C53.4856 29.7277 53.2813 29.9289 53.0348 30.065C52.7883 30.201 52.5091 30.2666 52.2278 30.2546C51.5236 30.2546 51.0237 29.9133 50.6931 29.2118C50.4272 28.5752 50.3042 27.888 50.3329 27.1987C50.3103 26.6388 50.4707 26.0869 50.7898 25.6263C50.9464 25.4006 51.1572 25.2178 51.4028 25.0948C51.6484 24.9717 51.921 24.9124 52.1955 24.9222C53.4185 24.9222 54.0259 25.8548 54.034 27.8195L54.0178 27.8249ZM39.16 24.5378C38.7487 24.5378 38.3295 24.5217 37.9317 24.4841H37.8672V24.691C37.8672 24.691 38.6332 24.8066 38.7461 25.1399C38.8355 25.6464 38.876 26.1603 38.867 26.6746C38.867 26.8869 38.867 29.0935 38.5042 29.5639C38.3672 29.7325 38.193 29.8672 37.9953 29.9572C37.7976 30.0472 37.5817 30.0901 37.3646 30.0826C36.7007 30.0826 36.3163 29.9079 36.0556 29.5881C35.4348 28.8301 35.7412 25.5753 35.7465 25.3307C35.7465 24.8738 36.7329 24.6991 36.7329 24.6991V24.4841H36.6684C36.1793 24.5217 35.6686 24.5378 35.1687 24.5378C34.6687 24.5378 34.1796 24.5217 33.7307 24.4841H33.6662V24.7018C33.6662 24.7018 34.7118 24.9114 34.7118 25.4301C34.7118 25.6129 34.5451 27.368 34.5559 28.0883C34.5559 28.8946 34.6983 29.5236 34.9967 29.9697C35.3971 30.5288 36.2572 30.8056 37.1845 30.8056C38.1521 30.8056 38.8831 30.467 39.254 29.7843C39.4977 29.3166 39.6196 28.6169 39.6196 27.6852C39.6196 27.6395 39.6196 27.5938 39.6196 27.5454C39.6196 26.8278 39.6196 26.2768 39.6196 25.8924C39.6196 25.5081 39.6196 25.285 39.6196 25.242C39.6572 24.7905 40.4259 24.7044 40.4259 24.7044V24.5002H40.3614C39.977 24.5109 39.5819 24.5378 39.16 24.5378ZM44.5355 27.2121H43.9307V25.0485H44.7881C45.6778 25.0485 46.0728 25.3979 46.0809 26.1236C46.1 26.3009 46.0663 26.4799 45.9841 26.6382C45.9018 26.7965 45.7747 26.9269 45.6186 27.0132C45.2764 27.164 44.9035 27.2321 44.5301 27.2121H44.5355ZM46.6507 29.1715C46.3389 28.6554 46.0218 28.134 45.7073 27.6099C46.6884 27.4271 47.156 26.8788 47.1506 25.9973C47.1599 25.7511 47.0981 25.5075 46.9728 25.2954C46.8475 25.0834 46.6638 24.9118 46.4438 24.8012C46.0144 24.5729 45.5319 24.4635 45.0461 24.4841C44.8204 24.4841 44.4898 24.4841 44.0517 24.5109C43.6136 24.5378 43.1701 24.5297 42.9524 24.5297C42.5842 24.5297 42.2536 24.5136 41.9552 24.4841H41.8907V24.7259C41.8907 24.7259 42.8072 24.7958 42.8933 25.2205C42.8933 25.2796 42.9121 25.5376 42.9121 25.9677V29.4026C42.9171 29.6319 42.8955 29.861 42.8476 30.0853C42.775 30.3541 42.0412 30.4804 42.0412 30.4804L42.0009 30.6927H42.0762C42.568 30.6524 43.0518 30.6309 43.5222 30.6309C43.9925 30.6309 44.4495 30.6524 44.8956 30.6927H44.9601V30.5046C44.6468 30.4197 44.3465 30.2922 44.0678 30.1256C43.971 30.0477 43.9227 29.9348 43.92 29.6768C43.92 29.6284 43.92 29.408 43.92 29.2252C43.92 29.0425 43.92 28.8624 43.92 28.7173V27.7577H44.5489C45.2306 28.6888 45.8588 29.658 46.4303 30.6605L46.4491 30.6927H46.4868C46.7179 30.6739 46.9732 30.6632 47.2232 30.6632C47.4732 30.6632 47.7608 30.6632 47.9785 30.6927H48.0457V30.4562H47.9946C47.6452 30.389 47.1802 29.9617 46.6453 29.1715H46.6507ZM60.2507 28.0238C60.2325 27.9993 60.2127 27.976 60.1916 27.9539C60.0283 27.778 59.8388 27.6284 59.6298 27.5105C59.2267 27.3089 58.9068 27.153 58.4795 26.9433C57.9876 26.6746 57.7565 26.3547 57.7565 25.9758C57.7542 25.8395 57.7813 25.7044 57.836 25.5796C57.8908 25.4548 57.9718 25.3433 58.0736 25.2527C58.1042 25.2228 58.1375 25.1958 58.1731 25.1721L58.2027 25.1533C58.285 25.1015 58.3761 25.0651 58.4714 25.0458C58.6152 25.0073 58.7634 24.9883 58.9122 24.9893C59.0363 24.9896 59.1603 24.9986 59.2831 25.0162C59.411 25.0243 59.5369 25.0515 59.6567 25.0969L59.9981 26.0913H60.1647L60.2238 24.6991L60.1889 24.6829C59.7454 24.4827 59.2644 24.3791 58.7778 24.3792C58.2589 24.358 57.7473 24.5071 57.3211 24.8039C57.1084 24.9507 56.9358 25.1483 56.8189 25.3788C56.702 25.6092 56.6446 25.8653 56.6518 26.1236C56.6518 26.2961 56.6827 26.4673 56.7432 26.6289C56.914 26.9986 57.1958 27.3059 57.5495 27.5078L57.6302 27.5535L57.6624 27.5723C58.0199 27.7765 58.3155 27.9781 58.7106 28.1905C59.2079 28.478 59.4363 28.7925 59.4363 29.1285C59.4358 29.2416 59.4223 29.3544 59.396 29.4644C59.3259 29.6404 59.2089 29.7938 59.0577 29.908C58.9066 30.0222 58.7271 30.0928 58.5386 30.1122C58.392 30.1359 58.2437 30.1475 58.0951 30.1471C57.777 30.1618 57.4611 30.0864 57.184 29.9294L56.9905 28.8113L56.7889 28.857H56.7486L56.5793 30.4858L56.6223 30.5046C57.0708 30.6813 57.5485 30.7725 58.0306 30.7734C58.6154 30.7935 59.1951 30.6581 59.7105 30.381C59.9702 30.2435 60.1861 30.0358 60.3334 29.7816C60.4807 29.5273 60.5536 29.2367 60.5437 28.943C60.5464 28.6124 60.4417 28.2898 60.2453 28.0238H60.2507Z" fill="#016D38"/>
<path d="M144.983 15.5H111.289V49.4676H144.983V15.5Z" fill="#FFDC5D"/>
<path fill-rule="evenodd" clip-rule="evenodd" d="M128.542 16.6831C133.182 15.0033 136.23 17.3832 136.23 17.3832C136.23 17.3832 133.589 16.8474 131.146 17.5064L128.542 16.6831Z" fill="#016D38"/>
<path fill-rule="evenodd" clip-rule="evenodd" d="M130.807 18.853C135.221 18.2174 136.214 19.6664 136.214 19.6664C136.214 19.6664 135.262 19.3868 133.162 19.77L130.807 18.853Z" fill="#016D38"/>
<path fill-rule="evenodd" clip-rule="evenodd" d="M127.333 35.7286C129.58 33.7908 132.178 34.2816 133.037 35.4275C134.269 37.07 133.449 38.8573 131.983 40.1752C131.983 40.1752 133.803 38.1787 132.374 36.2644C131.774 35.4568 129.879 35.0364 128.221 36.4286C126.562 37.8209 125.581 40.8264 128.627 42.0114C125.057 42.158 124.464 38.2061 127.333 35.7286Z" fill="#016D38"/>
<path fill-rule="evenodd" clip-rule="evenodd" d="M138.97 28.2734C154.143 21.8421 154.991 38.6156 128.411 55.174C147.616 39.0164 151.978 26.3043 138.97 28.2734Z" fill="#016D38"/>
<path fill-rule="evenodd" clip-rule="evenodd" d="M116.44 37.4269C100.912 44.2709 111.282 49.4625 111.282 49.4625C111.282 49.4625 105.998 43.5278 116.44 37.4269Z" fill="#016D38"/>
<path fill-rule="evenodd" clip-rule="evenodd" d="M130.221 49.4627C138.362 44.5858 132.946 39.7579 132.946 39.7579C132.946 39.7579 136.624 44.7501 127.54 49.4627H130.221Z" fill="#016D38"/>
<path fill-rule="evenodd" clip-rule="evenodd" d="M116.256 39.1265C117.511 36.788 118.341 34.2448 118.706 31.6157C118.706 31.6157 120.307 36.5962 116.256 39.1265Z" fill="#016D38"/>
<path fill-rule="evenodd" clip-rule="evenodd" d="M113.54 39.371C113.54 39.371 105.12 31.5649 118.336 25.0963C122.141 23.2347 127.305 23.0275 129.597 26.207C130.289 27.1652 130.794 32.6052 123.123 38.7473C120.2 37.8106 119.674 36.0722 119.674 36.0722C120.958 37.5779 123.047 37.5583 123.047 37.5583C128.076 33.6475 129.241 27.5856 128.31 26.6763C126.23 24.6446 122.616 24.8812 118.956 26.5238C107.707 31.5708 113.54 39.371 113.54 39.371Z" fill="#016D38"/>
<path fill-rule="evenodd" clip-rule="evenodd" d="M119.026 49.4612H116.256C116.256 49.4612 119.717 43.5949 126.007 42.6172C122.893 43.9251 120.396 46.3733 119.026 49.4612Z" fill="#016D38"/>
<path fill-rule="evenodd" clip-rule="evenodd" d="M120.307 19.113C120.307 19.113 120.48 15.8435 125.577 13.9428C127.169 13.3223 128.899 13.1391 130.586 13.4121C132.273 13.6851 133.856 14.4044 135.172 15.4955C135.172 15.4955 126.715 11.831 122.519 18.3876C122.445 18.5049 124.247 19.3457 124.247 19.3457C124.247 19.3457 125.356 26.7588 130.153 29.4749C132.219 28.8648 133.739 26.6903 133.739 26.6864C133.739 26.6825 133.559 29.3087 130.241 30.7166C124.064 27.5996 122.679 20.1572 122.679 20.1572C122.679 20.1572 120.442 19.6488 120.307 19.113Z" fill="#016D38"/>
<path fill-rule="evenodd" clip-rule="evenodd" d="M122.674 28.5604C111.877 31.4036 116.118 35.9401 116.118 35.9401C116.118 35.9401 115.039 32.3246 122.674 28.5604Z" fill="#016D38"/>
<path fill-rule="evenodd" clip-rule="evenodd" d="M135.701 21.2624C135.701 21.2624 134.51 23.0223 135.31 25.097C136.092 27.1052 138.548 28.4583 138.548 28.4583C138.548 28.4583 136.043 24.9347 135.701 21.2624Z" fill="#016D38"/>
</g>
<defs>
<clipPath id="clip0_13870_28932">
<rect width="161.345" height="68" fill="white" transform="translate(0.327148)"/>
</clipPath>
</defs>
</svg>