<svg width="137" height="138" viewBox="0 0 137 138" fill="none" xmlns="http://www.w3.org/2000/svg">
<path d="M67.9649 49.6297C68.2122 46.9808 67.8855 45.0294 67.082 44.2524C65.331 42.5617 63.217 41.2933 60.9012 40.5439C62.7839 43.9116 65.1654 46.9749 67.9649 49.6297ZM11.1283 88.8423C13.172 87.4072 15.288 86.078 17.468 84.8601C14.6862 81.7939 12.5324 78.2121 11.1283 74.3175V88.8423ZM34.3151 39.0959C40.0083 36.3056 46.2445 34.7985 52.5836 34.681C50.8057 30.8671 49.461 26.8658 48.575 22.7522C48.575 22.7522 41.2022 21.1187 40.7695 19.3527C40.7695 19.3527 41.0962 13.172 48.5397 7.48565H11.1283V60.1017C13.6271 53.3117 20.2317 45.9565 34.3151 39.0606V39.0959ZM94.1007 119.155H121.844V92.0474C115.071 100.542 105.906 109.698 94.1007 119.119V119.155ZM121.844 77.1783V51.6605C117.853 48.9498 111.301 48.1286 102.1 49.4972C109.879 46.1949 116.519 44.7557 121.844 44.8793V7.52097H58.1022C53.9751 9.75413 50.5023 13.026 48.0275 17.0129C47.7803 17.3925 53.7138 20.1562 53.7138 20.1562C54.6075 25.3009 56.1072 30.3217 58.1816 35.1137C63.4794 35.9967 68.2122 38.4513 71.3202 42.7602C72.2032 44.0228 73.0332 47.6518 72.0531 52.8349C72.4063 53.0556 72.7506 53.2763 73.1126 53.4794C79.9026 51.4751 84.9179 44.3319 84.9091 44.3142C84.9002 44.2966 84.3175 52.932 73.4305 57.5587C72.6535 57.1702 71.9206 56.7552 71.1878 56.3226C68.8744 63.7925 63.0292 73.5669 50.0584 83.9594C40.4429 80.8779 38.7211 75.1298 38.7211 75.1298C42.9417 80.0744 49.8023 80.0126 49.8023 80.0126C58.3608 73.3821 64.501 64.1207 67.2762 53.656C62.3217 49.8025 58.1853 44.9997 55.1089 39.5285C49.4315 39.2636 42.924 40.8177 36.3547 43.7579C4.28531 58.1415 14.4659 79.3327 17.7241 84.6923C20.6997 83.0235 24.1344 81.3194 28.0724 79.5799C19.6489 84.5069 14.3512 89.3897 11.1283 93.9723V119.128H88.1849C104.661 103.102 115.972 88.6745 121.844 77.1429V77.1783ZM67.8678 11.3972C83.1166 5.87865 93.1383 13.7017 93.1383 13.7017C93.1383 13.7017 84.4588 11.9358 76.4061 14.0991L67.8678 11.3972ZM26.9776 74.6795C26.9776 74.6795 13.0355 59.7661 48.5132 50.4244C23.4281 62.7947 26.9776 74.6795 26.9776 74.6795ZM35.5071 60.4549C35.5071 60.4549 40.8049 76.8251 27.4544 85.1779C31.5871 77.4812 34.314 69.1091 35.5071 60.4549ZM36.6108 119.11H27.5074C27.5074 119.11 38.8712 99.8264 59.5503 96.6035C49.3114 100.903 41.1044 108.955 36.6108 119.11ZM63.8591 73.9643C71.2319 67.5981 79.7525 69.2051 82.5957 72.9665C86.6485 78.3703 83.9466 84.242 79.1345 88.5685C79.1345 88.5685 85.121 82.0081 80.4413 75.7302C78.4722 73.0813 72.2473 71.695 66.7994 76.2688C61.3515 80.8426 58.1287 90.723 68.1415 94.608C56.3804 95.1555 54.429 82.1229 63.8591 73.9643ZM73.3687 119.057H64.539C94.4098 103.623 82.3043 87.2088 82.3043 87.2088C82.3043 87.2088 100.123 103.102 73.3687 119.084V119.057ZM83.0019 21.5513L75.2671 18.5316C89.7742 16.4478 93.0324 21.1805 93.0324 21.1805C93.0324 21.1805 89.8978 20.2887 83.0019 21.5513ZM91.3724 26.4518C92.4584 38.5131 100.732 50.1241 100.732 50.1241C100.732 50.1241 92.6615 45.7093 90.1362 39.0871C87.4608 32.2617 91.3724 26.4518 91.3724 26.4518ZM89.6064 7.50331C85.2815 3.92431 80.0777 1.56774 74.5349 0.678094C68.9921 -0.21155 63.3122 0.39814 58.0845 2.44391C54.6665 3.6681 51.4497 5.39407 48.5397 7.56512H58.1022C72.2032 -0.019569 89.6064 7.50331 89.6064 7.50331ZM11.1283 93.9635V88.8069C-13.9126 106.563 11.1283 119.119 11.1283 119.119C11.1283 119.119 1.25676 108.02 11.1283 93.9635ZM121.844 44.8793V51.6605C128.166 55.9606 128.024 64.905 121.844 77.1429V92.0474C143.105 65.373 140.686 45.3208 121.844 44.8793ZM67.3822 137.882C76.6431 132.149 85.5642 125.884 94.1007 119.119H88.1849C81.9776 125.176 75.0375 131.437 67.3822 137.882ZM11.1283 60.1017C9.46278 64.6939 9.46278 69.7252 11.1283 74.3175V60.1017Z" fill="#FFDC5D"/>
</svg>