<svg width="134" height="120" viewBox="0 0 134 120" fill="none" xmlns="http://www.w3.org/2000/svg">
<path d="M50.7546 98.671C50.0683 97.2938 48.8726 97.1542 48.3887 97.1542C47.9048 97.1542 46.709 97.2915 46.0576 98.5943L44.2733 102.163C42.7914 105.136 38.4504 104.808 37.4151 101.677L33.4999 89.9355L31.0316 97.352C29.6613 101.46 25.8251 104.222 21.4934 104.222H18.611C16.5545 104.222 14.8888 102.556 14.8888 100.5C14.8888 98.443 16.5545 96.7774 18.611 96.7774H21.4934C22.6171 96.7774 23.6127 96.0608 23.9687 94.9954L28.2004 82.284C28.9681 80.0018 31.0944 78.4664 33.4999 78.4664C35.9053 78.4664 38.0316 79.9995 38.797 82.284L42.026 91.9711C46.6206 88.2047 54.6024 89.7145 57.3801 95.2652C57.8198 96.1446 58.6573 96.6494 59.5576 96.7215V77.6173L89.3353 48.0514V37.2221H57.6942C54.6234 37.2221 52.1109 34.7096 52.1109 31.6388V0H5.58331C2.48923 0 0 2.48923 0 5.58331V113.527C0 116.621 2.48923 119.111 5.58331 119.111H83.7496C86.8437 119.111 89.3329 116.621 89.3329 113.527V104.222L59.5553 104.196C55.8052 104.124 52.4412 102.037 50.7546 98.671ZM89.3329 28.3586C89.3329 26.8929 88.7514 25.4738 87.7045 24.427L64.9292 1.62847C63.8824 0.581595 62.4633 0 60.9744 0H59.5553V29.7776H89.3329V28.3586ZM66.9997 80.716V96.7774H83.0494L120.662 58.9086L104.871 43.1171L66.9997 80.716ZM132.264 38.9273L124.85 31.5131C122.537 29.2007 118.785 29.2007 116.472 31.5131L110.133 37.8525L125.925 53.644L132.264 47.3046C134.579 44.9922 134.579 41.2397 132.264 38.9273Z" fill="#016D38"/>
</svg>
