<svg width="40" height="32" viewBox="0 0 40 32" fill="none" xmlns="http://www.w3.org/2000/svg">
<path d="M38.1563 23.3312C38.3188 22.45 38.3188 21.55 38.1563 20.6688L39.7688 19.7375C39.9563 19.6312 40.0375 19.4125 39.975 19.2062C39.5563 17.8562 38.8375 16.6313 37.9 15.6187C37.7563 15.4625 37.525 15.425 37.3375 15.5312L35.725 16.4625C35.0438 15.8812 34.2625 15.4313 33.4188 15.1313V13.2688C33.4188 13.0563 33.2688 12.8687 33.0625 12.825C31.6688 12.5125 30.25 12.525 28.925 12.825C28.7188 12.8687 28.5688 13.0563 28.5688 13.2688V15.1313C27.725 15.4313 26.9438 15.8812 26.2625 16.4625L24.65 15.5312C24.4688 15.425 24.2313 15.4625 24.0875 15.6187C23.15 16.6313 22.4313 17.8562 22.0125 19.2062C21.95 19.4125 22.0375 19.6312 22.2188 19.7375L23.8313 20.6688C23.6688 21.55 23.6688 22.45 23.8313 23.3312L22.2188 24.2625C22.0313 24.3688 21.95 24.5875 22.0125 24.7938C22.4313 26.1438 23.15 27.3625 24.0875 28.3813C24.2313 28.5375 24.4625 28.575 24.65 28.4688L26.2625 27.5375C26.9438 28.1187 27.725 28.5688 28.5688 28.8687V30.7313C28.5688 30.9438 28.7188 31.1312 28.925 31.175C30.3188 31.4875 31.7375 31.475 33.0625 31.175C33.2688 31.1312 33.4188 30.9438 33.4188 30.7313V28.8687C34.2625 28.5688 35.0438 28.1187 35.725 27.5375L37.3375 28.4688C37.5188 28.575 37.7563 28.5375 37.9 28.3813C38.8375 27.3687 39.5563 26.1438 39.975 24.7938C40.0375 24.5875 39.95 24.3688 39.7688 24.2625L38.1563 23.3312ZM31 25.0312C29.325 25.0312 27.9688 23.6688 27.9688 22C27.9688 20.3312 29.3313 18.9688 31 18.9688C32.6688 18.9688 34.0313 20.3312 34.0313 22C34.0313 23.6688 32.675 25.0312 31 25.0312ZM14 16C18.4188 16 22 12.4187 22 8C22 3.58125 18.4188 0 14 0C9.58125 0 6 3.58125 6 8C6 12.4187 9.58125 16 14 16ZM26.575 30.1562C26.4313 30.0812 26.2875 29.9937 26.15 29.9125L25.6563 30.2C25.2813 30.4125 24.8563 30.5312 24.4313 30.5312C23.75 30.5312 23.0938 30.2437 22.625 29.7437C21.4813 28.5063 20.6063 27 20.1125 25.3937C19.7688 24.2875 20.2313 23.1187 21.2313 22.5375L21.725 22.25C21.7188 22.0875 21.7188 21.925 21.725 21.7625L21.2313 21.475C20.2313 20.9 19.7688 19.725 20.1125 18.6187C20.1688 18.4375 20.25 18.2563 20.3125 18.075C20.075 18.0563 19.8438 18 19.6 18H18.5563C17.1688 18.6375 15.625 19 14 19C12.375 19 10.8375 18.6375 9.44375 18H8.4C3.7625 18 0 21.7625 0 26.4V29C0 30.6562 1.34375 32 3 32H25C25.6313 32 26.2188 31.8 26.7 31.4688C26.625 31.2313 26.575 30.9875 26.575 30.7313V30.1562Z" fill="#FFDC5D"/>
</svg>
